HIERARCHY
ROOT Hips
{
 OFFSET 0.000000 0.000000 0.000000
 CHANNELS 6 Xposition Yposition Zposition Yrotation Xrotation Zrotation
 JOINT Chest
 {
  OFFSET 0.000000 9.585900 0.002600
  CHANNELS 3 Yrotation Xrotation Zrotation
  JOINT Chest2
  {
   OFFSET 0.000000 9.601200 -0.005300
   CHANNELS 3 Yrotation Xrotation Zrotation
   JOINT Chest3
   {
    OFFSET 0.000000 9.561800 0.000000
    CHANNELS 3 Yrotation Xrotation Zrotation
    JOINT Chest4
    {
     OFFSET 0.000000 9.552100 0.000000
     CHANNELS 3 Yrotation Xrotation Zrotation
     JOINT Neck
     {
      OFFSET 0.000000 14.453000 0.000000
      CHANNELS 3 Yrotation Xrotation Zrotation
      JOINT Head
      {
       OFFSET 0.000000 8.936500 -0.011300
       CHANNELS 3 Yrotation Xrotation Zrotation
       End Site
       {
        OFFSET 0.000000 17.073600 -0.006000
       }
      }
     }
     JOINT RightCollar
     {
      OFFSET -2.921100 9.558500 0.000000
      CHANNELS 3 Yrotation Xrotation Zrotation
      JOINT RightShoulder
      {
       OFFSET -13.519700 0.000000 0.000000
       CHANNELS 3 Yrotation Xrotation Zrotation
       JOINT RightElbow
       {
        OFFSET 0.000000 -29.696600 0.000000
        CHANNELS 3 Yrotation Xrotation Zrotation
        JOINT RightWrist
        {
         OFFSET 0.000000 -24.004700 0.000000
         CHANNELS 3 Yrotation Xrotation Zrotation
         End Site
         {
          OFFSET 0.000000 -17.728500 0.000000
         }
        }
       }
      }
     }
     JOINT LeftCollar
     {
      OFFSET 2.921100 9.558500 0.000000
      CHANNELS 3 Yrotation Xrotation Zrotation
      JOINT LeftShoulder
      {
       OFFSET 13.519700 0.000000 0.000000
       CHANNELS 3 Yrotation Xrotation Zrotation
       JOINT LeftElbow
       {
        OFFSET 0.000000 -29.696600 0.000000
        CHANNELS 3 Yrotation Xrotation Zrotation
        JOINT LeftWrist
        {
         OFFSET 0.000000 -24.004700 0.000000
         CHANNELS 3 Yrotation Xrotation Zrotation
         End Site
         {
          OFFSET 0.000000 -17.728500 0.000000
         }
        }
       }
      }
     }
    }
   }
  }
 }
 JOINT RightHip
 {
  OFFSET -7.771700 -0.012900 -0.001300
  CHANNELS 3 Yrotation Xrotation Zrotation
  JOINT RightKnee
  {
   OFFSET 0.000000 -40.869800 0.001200
   CHANNELS 3 Yrotation Xrotation Zrotation
   JOINT RightAnkle
   {
    OFFSET 0.000000 -39.717900 0.002100
    CHANNELS 3 Yrotation Xrotation Zrotation
    JOINT RightToe
    {
     OFFSET 0.000000 -4.965400 11.033500
     CHANNELS 3 Yrotation Xrotation Zrotation
     End Site
     {
      OFFSET 0.000000 -1.423100 5.872300
     }
    }
   }
  }
 }
 JOINT LeftHip
 {
  OFFSET 7.771700 -0.012900 -0.001300
  CHANNELS 3 Yrotation Xrotation Zrotation
  JOINT LeftKnee
  {
   OFFSET 0.000000 -40.869800 0.001200
   CHANNELS 3 Yrotation Xrotation Zrotation
   JOINT LeftAnkle
   {
    OFFSET 0.000000 -39.717900 0.002100
    CHANNELS 3 Yrotation Xrotation Zrotation
    JOINT LeftToe
    {
     OFFSET 0.000000 -4.965400 11.033500
     CHANNELS 3 Yrotation Xrotation Zrotation
     End Site
     {
      OFFSET 0.000000 -1.423100 5.872300
     }
    }
   }
  }
 }
}
MOTION
Frames: 8
Frame Time: 0.008333
0.000000 85.388000 0.000000 0.000000 -5.767877 0.000000 0.000000 11.653817 0.000000 0.000000 -5.885947 0.000000 0.000000 -0.000000 0.000000 0.000000 -0.000000 0.000000 0.000000 12.528835 0.000000 0.000000 0.711642 0.000000 0.000000 -0.000000 0.000000 0.000000 0.000000 -90.000000 0.000000 -2.309062 0.000000 0.000000 2.309062 0.000000 0.000000 -0.000000 0.000000 0.000000 -0.000000 90.000000 0.000000 -2.309062 0.000000 0.000000 2.309062 0.000000 0.000000 8.520406 0.000000 0.000000 1.905762 0.000000 -0.000000 -4.658285 0.000000 0.000000 -0.000000 0.000000 0.000000 8.520406 0.000000 0.000000 1.905762 0.000000 -0.000000 -4.658285 0.000000 0.000000 -0.000000 0.000000
-7.165554 55.586605 24.592318 -178.965184 -29.464758 -9.466774 -0.182249 12.420093 4.255496 -0.064822 7.161169 2.013105 -0.039297 8.957467 2.536748 -0.064445 7.163814 2.020393 3.627964 20.561781 0.031833 3.843609 -3.819279 -0.761399 -1.345478 0.908729 -3.545303 -12.020364 -7.370129 4.948255 79.456420 -67.096754 -58.110097 12.978170 -7.886535 -16.207360 -10.776965 2.810542 -3.517311 4.544017 -0.347920 -1.732962 -77.259838 -67.475081 84.685748 9.972386 -23.511654 4.910581 -19.254326 -36.332821 7.621338 35.310176 86.455707 32.149009 0.793339 -17.463794 -1.434840 -0.026356 0.537996 -0.012251 -13.331079 -48.018756 14.120366 175.678018 80.614130 170.283454 -2.687020 -17.767554 2.827211 -0.019512 -0.552770 -0.013573
-7.164186 55.585890 24.592922 -178.963558 -29.416228 -9.465689 -0.189592 12.387107 4.245835 -0.065402 7.143765 2.014262 -0.038369 8.900091 2.506038 -0.064344 7.111041 2.004224 3.548938 20.538497 0.079053 3.780900 -3.854848 -0.726824 -1.346375 0.964143 -3.503079 -12.050367 -7.435117 4.990298 78.800912 -67.030494 -57.498660 12.998469 -7.882143 -16.123684 -10.772557 2.914099 -3.488239 4.553371 -0.338068 -1.740579 -77.365676 -67.530867 84.839037 9.933864 -23.466530 4.819303 -19.282373 -36.379101 7.640279 35.303554 86.459317 32.139823 0.801506 -17.463404 -1.437527 -0.026632 0.538131 -0.013651 -13.354469 -48.067010 14.134117 175.650862 80.613914 170.260328 -2.686747 -17.766498 2.821054 -0.017796 -0.551371 -0.011542
-7.162230 55.587444 24.589079 -178.961750 -29.390882 -9.466778 -0.173642 12.381781 4.234372 -0.065976 7.098625 2.005230 -0.050514 8.913812 2.528822 -0.059556 7.058462 1.985404 3.474569 20.490313 0.097905 3.695338 -3.913805 -0.689530 -1.351500 0.983192 -3.486482 -12.045411 -7.477513 5.021660 78.320832 -66.950336 -57.073216 13.005860 -7.832092 -16.058058 -10.740556 2.853050 -3.495506 4.569445 -0.244310 -1.751976 -77.427966 -67.526812 84.862262 9.958955 -23.435478 4.733368 -19.299486 -36.399099 7.652058 35.370092 86.460038 32.202669 0.803219 -17.465448 -1.437802 -0.026831 0.536812 -0.015034 -13.381587 -48.086407 14.144094 175.556714 80.610057 170.169712 -2.690942 -17.769146 2.808062 -0.015497 -0.552775 -0.012207
-7.160381 55.589209 24.584082 -178.958834 -29.367262 -9.466322 -0.166923 12.367720 4.227505 -0.065999 7.076759 2.002126 -0.053589 8.884924 2.521953 -0.056530 7.038180 1.984793 3.398320 20.442004 0.116319 3.607898 -3.972813 -0.652309 -1.360912 1.029322 -3.467721 -12.035055 -7.510522 5.039041 77.952074 -66.877618 -56.756905 13.023348 -7.764757 -15.994613 -10.723879 2.842752 -3.498463 4.619963 -0.251745 -1.815166 -77.428064 -67.471383 84.785333 9.940511 -23.395484 4.709160 -19.315345 -36.418090 7.656869 35.414050 86.462410 32.248940 0.806135 -17.467646 -1.444721 -0.025693 0.535766 -0.013689 -13.404734 -48.102883 14.152552 175.508439 80.607243 170.121921 -2.691373 -17.774119 2.796886 -0.014412 -0.553351 -0.011428
-7.157943 55.589077 24.581863 -178.952337 -29.319993 -9.469870 -0.163171 12.330831 4.225415 -0.074427 7.061078 2.003303 -0.051234 8.850127 2.511901 -0.048068 7.023141 1.984491 3.319016 20.386778 0.133875 3.517391 -4.039634 -0.615348 -1.366154 1.030103 -3.456445 -12.039519 -7.471109 5.040581 77.684875 -66.818624 -56.532358 13.043410 -7.688331 -15.920328 -10.733877 2.881312 -3.492956 4.631250 -0.254775 -1.829764 -77.498550 -67.488626 84.840332 9.951807 -23.340833 4.638990 -19.342869 -36.461244 7.674698 35.533931 86.463979 32.370142 0.806718 -17.465285 -1.441880 -0.027356 0.532252 -0.019520 -13.449528 -48.144556 14.176161 175.452325 80.604088 170.063508 -2.687786 -17.777658 2.784755 -0.016739 -0.551682 -0.011741
-7.155808 55.585885 24.584196 -178.936399 -29.237184 -9.475240 -0.172294 12.259913 4.222822 -0.083353 7.046314 2.002926 -0.043349 8.819595 2.503027 -0.051863 7.032164 1.993854 3.246676 20.297827 0.139829 3.422765 -4.120086 -0.580475 -1.359791 1.007353 -3.452798 -12.036701 -7.478169 5.054348 77.344115 -66.738152 -56.240006 13.055283 -7.605539 -15.826599 -10.716254 2.839413 -3.496935 4.622911 -0.208213 -1.834130 -77.522381 -67.484717 84.847606 9.964437 -23.304864 4.552015 -19.390588 -36.540196 7.705344 35.654941 86.467160 32.492032 0.807742 -17.465318 -1.446139 -0.031979 0.533372 -0.017286 -13.512944 -48.227201 14.207306 175.400030 80.601526 170.011794 -2.685987 -17.775360 2.770531 -0.013261 -0.546195 -0.008991
-7.153431 55.585876 24.580141 -178.930327 -29.198975 -9.478052 -0.164792 12.230294 4.223788 -0.079568 7.029106 2.002485 -0.039305 8.797280 2.502280 -0.062312 7.037838 1.998899 3.172279 20.200699 0.145713 3.323262 -4.212202 -0.548199 -1.349851 0.991069 -3.444296 -12.029611 -7.530135 5.066702 76.934922 -66.654334 -55.879815 13.045782 -7.511524 -15.715377 -10.675502 2.759502 -3.509426 4.598703 -0.154579 -1.844398 -77.500671 -67.456356 84.793798 9.949108 -23.270699 4.470600 -19.412509 -36.572784 7.725856 35.694160 86.472218 32.526583 0.803529 -17.470248 -1.444988 -0.021622 0.534626 -0.014515 -13.550921 -48.260572 14.222215 175.352678 80.596730 169.965007 -2.674730 -17.777511 2.758181 -0.017664 -0.547661 -0.011485
